# xmcd CD database file generated by Grip 3.3.1
# 
# Track frame offsets:
#       150
#       43257
#       79795
#       97717
#       122325
#       158044
#       179203
#       220790
# 
# Disc length: 3367 seconds
# 
# Revision: 1
# Processed by: cddbd v1.5.2PL0 Copyright (c) Steve Scherf et al.
# Submitted via: Grip 3.3.1
# 
DISCID=610d2508
DTITLE=Quartetto Italiano - Dvrorak - String Quartet No.12, Op.96 "Ameri
DTITLE=can", Borodin - String Quartet No.2 in D major
DYEAR=2016
DGENRE=Classical
TTITLE0=I. Allegro ma non troppo - String Quartet No.12, Op.96 "American"
TTITLE0=(Dvorak)
TTITLE1=II. Lento - String Quartet No.12, Op.96 "American" (Dvorak)
TTITLE2=III. Molto vivace - String Quartet No.12, Op.96 "American" (Dvora
TTITLE2=k)
TTITLE3=IV. Finale: Vivace ma non troppo - String Quartet No.12, Op.96 "A
TTITLE3=merican" (Dvorak)
TTITLE4=I. Allegro moderato - String Quartet No.2 in D major (Borodin)
TTITLE5=II. Scherzo: Allegro - String Quartet No.2 in D major (Borodin)
TTITLE6=III. Notturno: Andante - String Quartet No.2 in D major (Borodin)
TTITLE7=IV. Finale: Andante - Vivace - String Quartet No.2 in D major (Bo
TTITLE7=rodin)
EXTD=
EXTT0=
EXTT1=
EXTT2=
EXTT3=
EXTT4=
EXTT5=
EXTT6=
EXTT7=
PLAYORDER=
